<svg width="43" height="49" viewBox="0 0 43 49" fill="none" xmlns="http://www.w3.org/2000/svg">
<path d="M40.3085 0.856675L40.3085 0.856739L40.3162 0.860339C40.8069 1.09124 41.247 1.43072 41.6058 1.85754C41.9613 2.28048 42.2285 2.77926 42.3887 3.32143C42.5123 3.88289 42.5332 4.46424 42.4502 5.03423L42.4489 5.04304L42.4479 5.0519L40.7974 20.127L40.7944 20.1541V20.1814V20.4561L38.6688 40.1994C38.6688 40.1998 38.6687 40.2003 38.6687 40.2007C38.4061 42.4827 37.3713 44.5848 35.7593 46.125C34.1575 47.647 32.0817 48.4903 29.931 48.5C29.9307 48.5 29.9304 48.5 29.9301 48.5H13.1907C13.1905 48.5 13.1902 48.5 13.19 48.5C11.0469 48.489 8.97915 47.6457 7.38585 46.1257L7.38191 46.122C5.74934 44.5977 4.70246 42.4931 4.45202 40.2021L4.4519 40.201L0.528983 5.02577L0.528995 5.02577L0.528589 5.02234C0.461633 4.45739 0.512656 3.88408 0.677763 3.34264L0.677795 3.34265L0.67941 3.33713C0.839417 2.78993 1.10845 2.28665 1.4671 1.8605L1.46713 1.86052L1.47108 1.85571C1.83136 1.41664 2.27834 1.06898 2.77863 0.836069L2.78774 0.831829L2.79667 0.827227C3.26722 0.584713 3.78762 0.474287 4.30822 0.505035L4.32295 0.505905H4.3377L38.7589 0.505943L38.765 0.505868C39.2971 0.499374 39.8246 0.618902 40.3085 0.856675ZM16.2926 42.2631L16.3071 42.264H16.3217H18.7138H19.0008C19.776 42.264 20.5141 41.9403 21.0543 41.3728C21.5938 40.8062 21.8928 40.0427 21.8928 39.2514C21.8928 38.4602 21.5938 37.6967 21.0543 37.1301C20.5141 36.5626 19.776 36.2389 19.0008 36.2389H16.6198C16.2952 36.2234 15.9819 36.0885 15.7359 35.8513L15.7359 35.8512L15.7282 35.8441C15.4787 35.6135 15.3114 35.2929 15.2623 34.9378C15.2623 34.9375 15.2623 34.9373 15.2622 34.9371L14.6884 30.6674L14.6885 30.6674L14.6869 30.6575C14.5667 29.8807 14.1607 29.1779 13.5479 28.7034C12.9341 28.2282 12.163 28.0214 11.4005 28.1336C10.6385 28.2456 9.9551 28.6657 9.49286 29.2947C9.03118 29.9229 8.8245 30.7118 8.91189 31.4931L8.91179 31.4931L8.91315 31.5033L9.4872 35.8249L9.48806 35.8308C9.73851 37.5569 10.5506 39.1431 11.792 40.3181L11.7951 40.3209C13.0397 41.4793 14.6241 42.1656 16.2926 42.2631ZM37.9499 19.0633L38.3063 18.9906L38.3468 18.6291L39.897 4.80156C39.9469 4.6109 39.9436 4.40936 39.8871 4.22013C39.846 4.05546 39.7654 3.88489 39.6332 3.74196C39.5308 3.62406 39.4101 3.52323 39.2752 3.44403L39.158 3.37518H39.022H4.35014C4.18798 3.3415 4.01982 3.34843 3.86014 3.39597L3.84203 3.40137L3.82438 3.40811C3.63944 3.47876 3.48312 3.60358 3.37176 3.76236C3.25518 3.88936 3.16902 4.04104 3.11839 4.2052L3.11222 4.22519L3.10775 4.24561C3.07087 4.41403 3.0689 4.58846 3.10183 4.75752L4.29531 15.388L4.36677 16.0246L4.96691 15.8007C11.567 13.3392 18.1744 11.9416 23.6093 16.4459L23.6115 16.4476C25.9655 18.3766 28.2714 19.3021 30.6468 19.6033C33.0084 19.9028 35.4117 19.5814 37.9499 19.0633Z" fill="#9BE1A0" stroke="#323F47"/>
</svg>
